HIERARCHY
ROOT Hips
{
	OFFSET 0.00000 0.00000 0.00000
	CHANNELS 6 Xposition Yposition Zposition Zrotation Yrotation Xrotation 
	JOINT LHipJoint
	{
		OFFSET 0 0 0
		CHANNELS 3 Zrotation Yrotation Xrotation
		JOINT LeftHip
		{
			OFFSET 1.28858 -1.83292 1.03970
			CHANNELS 3 Zrotation Yrotation Xrotation
			JOINT LeftKnee
			{
				OFFSET 2.47846 -6.80952 0.00000
				CHANNELS 3 Zrotation Yrotation Xrotation
				JOINT LeftAnkle
				{
					OFFSET 2.75274 -7.56311 0.00000
					CHANNELS 3 Zrotation Yrotation Xrotation
					JOINT LeftToe
					{
						OFFSET 0.12848 -0.35301 1.68223
						CHANNELS 3 Zrotation Yrotation Xrotation
						End Site
						{
							OFFSET 0.00000 -0.00000 0.87311
						}
					}
				}
			}
		}
	}
	JOINT RHipJoint
	{
		OFFSET 0 0 0
		CHANNELS 3 Zrotation Yrotation Xrotation
		JOINT RightHip
		{
			OFFSET -1.31183 -1.83292 1.03970
			CHANNELS 3 Zrotation Yrotation Xrotation
			JOINT RightKnee
			{
				OFFSET -2.44740 -6.72417 0.00000
				CHANNELS 3 Zrotation Yrotation Xrotation
				JOINT RightAnkle
				{
					OFFSET -2.67343 -7.34519 0.00000
					CHANNELS 3 Zrotation Yrotation Xrotation
					JOINT RightToe
					{
						OFFSET -0.16914 -0.46471 1.77626
						CHANNELS 3 Zrotation Yrotation Xrotation
						End Site
						{
							OFFSET -0.00000 -0.00000 0.92777
						}
					}
				}
			}
		}
	}
	JOINT lowerback
	{
		OFFSET 0 0 0
		CHANNELS 3 Zrotation Yrotation Xrotation
		JOINT Chest
		{
			OFFSET 0.01249 2.14252 0.03842
			CHANNELS 3 Zrotation Yrotation Xrotation
			JOINT Chest2
			{
				OFFSET -0.02957 2.14199 -0.03751
				CHANNELS 3 Zrotation Yrotation Xrotation
				JOINT lowerneck
				{
					OFFSET 0 0 0
					CHANNELS 3 Zrotation Yrotation Xrotation
					JOINT Neck
					{
						OFFSET -0.01678 1.65709 -0.05476
						CHANNELS 3 Zrotation Yrotation Xrotation
						JOINT Head
						{
							OFFSET 0.07912 1.58331 -0.11843
							CHANNELS 3 Zrotation Yrotation Xrotation
							End Site
							{
								OFFSET 0.03298 1.73940 -0.04271
							}
						}
					}
				}
				JOINT LeftCollar
				{
					OFFSET 0 0 0
					CHANNELS 3 Zrotation Yrotation Xrotation
					JOINT LeftShoulder
					{
						OFFSET 3.39556 1.16496 0.08673
CHANNELS 3 Zrotation Xrotation Yrotation
						JOINT LeftElbow
						{
OFFSET 0 -5.239100 -0.000000
CHANNELS 3 Zrotation Xrotation Yrotation
							JOINT LeftWrist
							{
OFFSET 0 -3.314670 0.000000
CHANNELS 3 Zrotation Xrotation Yrotation
								JOINT lhand
								{
									OFFSET 0 0 0
CHANNELS 3 Zrotation Xrotation Yrotation
									JOINT LFingers
									{
OFFSET 0 -0.965900 0.000000
CHANNELS 3 Zrotation Xrotation Yrotation
										End Site
										{
OFFSET 0 -0.778730 0.000000
										}
									}
								}
								JOINT LThumb
								{
OFFSET 0 0.000000 0.000000
CHANNELS 3 Zrotation Xrotation Yrotation
									End Site
									{
OFFSET 0 -0.790620 0.790620
									}
								}
							}
						}
					}
				}
				JOINT RightCollar
				{
					OFFSET 0 0 0
					CHANNELS 3 Zrotation Yrotation Xrotation
					JOINT RightShoulder
					{
						OFFSET -3.27193 1.31331 0.33940
CHANNELS 3 Zrotation Xrotation Yrotation
						JOINT RightElbow
						{
OFFSET 0 -5.302520 0.000000
CHANNELS 3 Zrotation Xrotation Yrotation
							JOINT RightWrist
							{
OFFSET 0 -3.678750 0.000000
CHANNELS 3 Zrotation Xrotation Yrotation
								JOINT rhand
								{
									OFFSET 0 0 0
CHANNELS 3 Zrotation Xrotation Yrotation
									JOINT RFingers
									{
OFFSET 0 -0.594810 0.000000
CHANNELS 3 Zrotation Xrotation Yrotation
										End Site
										{
OFFSET 0 -0.479550 0.000000
										}
									}
								}
								JOINT RThumb
								{
OFFSET 0 0.000000 0.000000
CHANNELS 3 Zrotation Xrotation Yrotation
									End Site
									{
OFFSET 0 -0.486870 0.486870
									}
								}
							}
						}
					}
				}
			}
		}
	}
}
MOTION
Frames: 9
Frame Time: 0.008333333333333333
5.910100 17.919800 -23.526900 -2.826200 78.461100 1.181300 0.000000 0.000000 0.000000 -7.578400 -2.409300 9.612100 0.000100 -0.047900 -0.131700 2.521800 -8.674000 -28.602100 6.522100 14.915900 47.042900 0.000000 0.000000 0.000000 8.311500 12.870600 5.316800 -0.001600 0.256000 -0.703400 0.306400 -23.001700 -30.376500 -0.000500 -0.139100 0.382100 2.567700 -6.069100 -4.967900 -2.098600 -8.183700 1.858900 -4.237400 -3.972000 4.028100 -6.523600 -23.530800 11.867200 13.578400 -31.996400 0.203700 4.710300 -16.330000 1.509600 -0.000000 -0.000000 0.000000 13.118200 12.619500 -23.004700 15.713300 -25.130400 3.523300 9.465700 -16.713400 12.007300 0.000000 0.000000 0.000000 -7.125000 0.000000 0.000000 -12.333900 17.971200 -8.117200 -0.000000 -0.000000 0.000000 -3.751700 -0.769300 38.042300 -13.844000 -22.511300 -2.768100 -11.635500 8.894300 43.854200 0.000000 0.000000 0.000000 7.125000 0.000000 -0.000000 40.232100 70.712900 -25.996000
5.918391 17.925954 -23.522113 -3.836353 78.609315 0.400906 0.000000 0.000000 0.000000 -7.198118 -2.064234 9.170019 0.000015 -0.011487 -0.031522 2.429657 -8.441762 -28.062320 6.370979 14.778284 46.452775 0.000000 0.000000 0.000000 8.481682 12.471855 5.001223 -0.001856 0.278309 -0.764686 0.550946 -23.577294 -29.522768 -0.017595 0.769166 -2.114135 1.149742 -6.226974 -5.119192 -0.793727 -8.356447 1.831206 -2.180767 -4.102265 4.466163 -7.345877 -23.576786 11.627355 13.262823 -32.125639 -0.122134 4.667562 -16.386499 1.524473 0.000000 0.000000 0.000000 11.050712 11.787735 -21.621274 15.487217 -24.820294 3.427909 9.369112 -15.886422 12.359717 0.000000 0.000000 0.000000 -7.125000 0.000000 0.000000 -12.384502 17.627929 -8.248234 0.000000 0.000000 0.000000 -5.713198 -0.661601 37.563721 -14.025294 -22.770805 -2.837934 -10.356953 7.589683 42.861399 0.000000 0.000000 0.000000 7.125000 0.000000 0.000000 39.568722 69.572226 -24.573341
5.922709 17.926361 -23.521868 -3.629189 78.621942 0.637745 0.000000 0.000000 0.000000 -7.218713 -1.889949 9.073260 0.000000 -0.004165 -0.011307 2.395056 -8.506102 -27.852962 6.382337 14.788886 46.497454 0.000000 0.000000 0.000000 8.405592 12.396508 4.979173 -0.001829 0.278978 -0.766515 0.423635 -23.131469 -29.747216 -0.006310 0.167653 -0.460838 -0.447794 -6.330073 -4.995831 0.406635 -8.439297 1.802660 -0.102848 -4.203653 4.777507 -8.055980 -23.670026 11.452572 12.887931 -32.286736 -0.654508 4.627166 -16.461517 1.444199 0.000000 0.000000 0.000000 9.138536 11.121287 -20.747494 15.387356 -24.682955 3.386086 9.343405 -15.236610 12.613724 0.000000 0.000000 0.000000 -7.125000 0.000000 0.000000 -12.391113 17.378173 -8.322437 0.000000 0.000000 0.000000 -7.668453 -0.556952 37.048815 -14.193604 -23.010655 -2.903439 -9.028456 6.423634 42.408042 0.000000 0.000000 0.000000 7.125000 0.000000 0.000000 40.057811 68.814051 -24.257527
5.923449 17.923674 -23.524244 -3.094400 78.530410 1.081689 0.000000 0.000000 0.000000 -7.377571 -1.852757 9.223243 0.000000 -0.026497 -0.072804 2.407445 -8.614281 -27.923862 6.449413 14.850030 46.759487 0.000000 0.000000 0.000000 8.245400 12.190487 4.940300 -0.001856 0.279224 -0.767119 0.535011 -23.289503 -29.171659 -0.026062 0.717758 -1.973930 -2.935161 -6.381614 -4.563790 2.242023 -8.439701 1.737150 3.164289 -4.319105 5.119508 -9.292102 -23.761935 11.317799 12.415409 -32.486518 -1.627764 4.629456 -16.551724 1.287063 0.000000 0.000000 0.000000 6.145688 10.253266 -19.891425 15.296067 -24.556888 3.348063 9.436204 -14.353962 12.721470 0.000000 0.000000 0.000000 -7.125000 0.000000 0.000000 -12.322982 17.266790 -8.305273 0.000000 0.000000 0.000000 -10.875569 -0.490734 37.528792 -14.492143 -23.433032 -3.021609 -8.346944 5.539367 42.738969 0.000000 0.000000 0.000000 7.125000 0.000000 0.000000 41.360013 68.831224 -25.166490
5.921424 17.920333 -23.527325 -1.774824 78.371555 2.258232 0.000000 0.000000 0.000000 -7.772405 -1.926681 9.484977 0.000084 -0.064633 -0.177702 2.455098 -8.632902 -28.207968 6.489668 14.886626 46.916587 0.000000 0.000000 0.000000 7.886594 12.037990 4.911069 -0.001816 0.273528 -0.751444 0.682320 -23.560228 -28.510461 -0.052211 1.471005 -4.045826 -4.630524 -6.410583 -4.173883 3.293750 -8.430978 1.662337 5.205985 -4.391204 5.239602 -10.165359 -23.710612 11.368359 12.199325 -32.489905 -2.205705 4.679622 -16.551045 1.193953 0.000000 0.000000 0.000000 4.368034 9.812022 -19.361358 15.337522 -24.613979 3.365393 9.573613 -13.862229 12.627857 0.000000 0.000000 0.000000 -7.125000 0.000000 0.000000 -12.232701 17.352092 -8.218235 0.000000 0.000000 0.000000 -12.895492 -0.304651 38.020367 -14.624768 -23.620743 -3.074110 -7.629103 4.649329 42.831028 0.000000 0.000000 0.000000 7.125000 0.000000 0.000000 42.241717 68.670620 -25.618968
5.918251 17.918273 -23.529793 -0.038475 78.221185 3.872587 0.000000 0.000000 0.000000 -8.278601 -2.039190 9.700963 0.000200 -0.095537 -0.262553 2.509703 -8.528221 -28.536386 6.464958 14.864103 46.820040 0.000000 0.000000 0.000000 7.432080 12.064225 4.928738 -0.001590 0.255129 -0.700933 0.665456 -23.446346 -28.450067 -0.057185 1.540753 -4.238110 -4.977670 -6.438035 -3.994716 3.203306 -8.451455 1.602886 5.322729 -4.408132 5.116476 -10.264725 -23.624195 11.530790 12.193478 -32.396869 -2.192033 4.712159 -16.508046 1.178675 0.000000 0.000000 0.000000 4.478185 9.915992 -19.310886 15.523542 -24.870207 3.443240 9.651227 -13.936725 12.461256 0.000000 0.000000 0.000000 -7.125000 0.000000 0.000000 -12.186363 17.512682 -8.141520 0.000000 0.000000 0.000000 -12.976138 0.159455 37.980149 -14.619007 -23.612535 -3.071909 -6.658600 3.755325 41.791649 0.000000 0.000000 0.000000 7.125000 0.000000 0.000000 41.412306 67.611239 -24.135329
5.916668 17.919627 -23.530277 -0.233647 78.215537 3.677102 0.000000 0.000000 0.000000 -8.240835 -2.051665 9.687842 0.000174 -0.091896 -0.252434 2.517012 -8.356439 -28.585056 6.388028 14.793989 46.519559 0.000000 0.000000 0.000000 7.483214 12.129905 4.944908 -0.001300 0.231793 -0.636814 0.581895 -23.239398 -28.746046 -0.044859 1.364887 -3.753439 -4.936367 -6.478068 -3.926345 3.229109 -8.510659 1.561576 5.330469 -4.434269 5.039809 -10.139679 -23.773141 11.526240 11.967240 -32.576815 -2.217914 4.642147 -16.591653 1.134071 0.000000 0.000000 0.000000 4.652642 9.950397 -19.476014 15.700070 -25.112193 3.517750 9.633659 -14.060604 12.454287 0.000000 0.000000 0.000000 -7.125000 0.000000 0.000000 -12.198682 17.520531 -8.147984 0.000000 0.000000 0.000000 -12.975070 0.812979 37.919894 -14.772933 -23.828787 -3.133744 -6.058211 3.241480 40.042332 0.000000 0.000000 0.000000 7.125000 0.000000 0.000000 39.107420 66.146651 -21.334146
5.921113 17.929115 -23.524807 -7.057521 78.576843 -2.851881 0.000000 0.000000 0.000000 -6.375924 -1.766176 9.192083 0.000003 -0.024712 -0.067806 2.387431 -8.275579 -27.815432 6.316399 14.728087 46.238686 0.000000 0.000000 0.000000 9.278633 12.206406 5.004143 -0.001300 0.233075 -0.640233 0.517360 -23.305215 -29.335487 -0.031952 1.154019 -3.172546 -3.515845 -6.584913 -4.102853 3.622811 -8.735803 1.558755 4.919330 -4.505214 5.011944 -9.977959 -23.957597 11.376230 11.720813 -32.800334 -2.073716 4.530089 -16.691745 1.157149 0.000000 0.000000 0.000000 4.846415 9.886547 -19.729450 15.855465 -25.324258 3.583908 9.683918 -14.275405 12.523351 0.000000 0.000000 0.000000 -7.125000 0.000000 0.000000 -12.161330 17.449586 -8.141232 0.000000 0.000000 0.000000 -12.919682 0.940509 37.834076 -14.567022 -23.539451 -3.050918 -5.907347 3.224727 40.543904 0.000000 0.000000 0.000000 7.125000 0.000000 0.000000 40.033807 66.478126 -22.203520
5.922792 17.930473 -23.524281 -7.582176 78.589012 -3.375385 0.000000 0.000000 0.000000 -6.249492 -1.749957 9.212654 0.000000 -0.028512 -0.078279 2.371491 -8.380937 -27.714918 6.330001 14.740712 46.292283 0.000000 0.000000 0.000000 9.412675 12.139598 5.015357 -0.001384 0.241648 -0.663850 0.551718 -23.385781 -29.211150 -0.046031 1.381289 -3.798631 -3.381247 -6.652704 -4.079231 3.678940 -8.835739 1.553923 4.895796 -4.551185 4.993968 -10.185908 -23.841357 11.374473 11.797711 -32.683097 -1.875045 4.551114 -16.632940 1.249452 0.000000 0.000000 0.000000 4.880035 9.817417 -19.547679 15.985215 -25.500454 3.639590 9.795776 -14.356534 12.502324 0.000000 0.000000 0.000000 -7.125000 0.000000 0.000000 -12.085342 17.464375 -8.084028 0.000000 0.000000 0.000000 -13.062915 1.465700 37.851927 -14.896382 -24.001188 -3.183893 -5.219451 2.867553 40.947757 0.000000 0.000000 0.000000 7.125000 0.000000 0.000000 41.359447 66.570502 -23.130302
